<svg xmlns="http://www.w3.org/2000/svg" viewBox="0 0 128 128"><defs><filter id="g"><feGaussianBlur stdDeviation="2" result="b"/><feMerge><feMergeNode in="b"/><feMergeNode in="SourceGraphic"/></feMerge></filter></defs><path filter="url(#g)" fill="#dcecf2" d="M25 56h78v50H25z"/><path fill="#19c2d1" d="M20 56l44-32 44 32z"/><path fill="#031220" d="M53 78a11 16 0 0 1 22 0v28H53z"/><path fill="#e7b85a" d="M37 70h11v16H37zm43 0h11v16H80z"/><circle fill="#ffcf54" cx="96" cy="35" r="16"/><path fill="#ffd86a" d="M96 12l5 14 14-5-7 13 13 7-14 3 5 14-13-7-7 13-3-15-15 3 10-11-10-10 15 2z"/></svg>