<svg xmlns="http://www.w3.org/2000/svg" viewBox="0 0 128 128"><defs><filter id="g"><feGaussianBlur stdDeviation="2" result="b"/><feMerge><feMergeNode in="b"/><feMergeNode in="SourceGraphic"/></feMerge></filter></defs><path filter="url(#g)" fill="#19c2d1" d="M61 47h9l10 67H50z"/><path fill="#7ff6ff" d="M65 44C55 23 35 22 18 31c20 1 34 8 47 13zm4 1c7-24 25-32 45-28-17 9-28 19-45 28zm-2 0C52 32 51 13 59 2c8 15 10 28 8 43zm0 2C48 43 35 51 26 66c18-4 31-10 41-19zm2 0c18-3 31 4 42 18-19-2-32-8-42-18z"/></svg>
