<svg xmlns="http://www.w3.org/2000/svg" viewBox="0 0 128 128"><defs><filter id="g"><feGaussianBlur stdDeviation="2" result="b"/><feMerge><feMergeNode in="b"/><feMergeNode in="SourceGraphic"/></feMerge></filter><linearGradient id="a" x1="0" x2="1"><stop stop-color="#7ff6ff"/><stop offset="1" stop-color="#19c2d1"/></linearGradient></defs><path filter="url(#g)" fill="url(#a)" d="M10 78c22-35 54-47 87-28 12 7 18 18 21 30-16-16-35-20-53-10 14 1 25 8 34 20-29-10-53-8-75 8 9-12 20-20 35-25-18-4-34-1-49 5z"/><path fill="#fff" opacity=".9" d="M44 52c13-10 31-13 46-4 6 4 11 9 14 15-17-12-38-11-60-11z"/></svg>
